<?xml version="1.0" encoding="UTF-8"?>
<svg width="129px" height="30px" viewBox="0 0 129 30" version="1.1" xmlns="http://www.w3.org/2000/svg" xmlns:xlink="http://www.w3.org/1999/xlink">
    <title>STUDIO-LOGO</title>
    <g id="总览" stroke="none" stroke-width="1" fill="none" fill-rule="evenodd">
        <g id="导航菜单" transform="translate(-16.000000, -5.000000)" fill="#174F99">
            <g id="STUDIO-LOGO" transform="translate(16.000000, 5.000000)">
                <path d="M81.6355,0.878571429 L81.2915,6.79285714 L81.0335,11.2821429 L83.5275,7.59642857 L84.07575,6.77142857 L87.7845,6.77142857 L87.161,7.63928571 L87.118,7.66071429 L86.52675,8.49642857 L82.22675,14.55 L77.69025,14.55 L77.9805,9.56785714 L73.2856595,15.5085732 C94.4453466,15.8438439 113.69001,17.3781672 129,19.725 C110.154983,17.8986883 91.2394132,16.9040946 72.3087486,16.7437983 L68.6065,21.4285714 L69.2097546,16.725011 C67.6399088,16.7192695 66.0699801,16.7192654 64.5,16.725 C42.9631277,16.6463327 21.4359203,17.6475981 1.13686838e-13,19.725 C17.458,17.0464286 39.89325,15.4392857 64.5,15.4392857 C66.1334404,15.4392857 67.7575488,15.4464149 69.3714574,15.4605071 L69.99325,10.6071429 L70.477,6.88928571 L74.175,6.88928571 L73.6375,9.77142857 L73.36875,11.2928571 L81.6355,0.878571429 Z M4.05275,5.93571429 C7.57875,6.06428571 11.137,6.16071429 14.73825,6.25714286 L14.73825,6.25714286 L13.8675,8.31428571 L9.85775,8.31428571 L6.86925,15.3321429 L2.89175,15.4607143 L5.934,8.31428571 L1.92425,8.31428571 L2.97775,5.93571429 Z M124.399,5.95714286 C125.232897,5.92512469 126.050184,6.19537991 126.6995,6.71785714 C127.177132,7.33900979 127.228187,8.1870974 126.8285,8.86071429 C126.398014,9.84622904 125.638268,10.6526704 124.6785,11.1428571 C123.472072,11.7410475 122.13326,12.0248763 120.787,11.9678571 L120.787,11.9678571 L118.637,11.9678571 L117.2825,15.1821429 L113.38025,15.075 L117.175,6.18214286 C119.583,6.11785714 121.991,6.04285714 124.399,5.95714286 Z M16.555,6.31071429 C19.8946667,6.38928571 23.27375,6.46428571 26.69225,6.53571429 C26.8671388,6.67828293 27.0130884,6.85284066 27.12225,7.05 C27.327314,7.55740452 27.2998288,8.12876202 27.047,8.61428571 C26.8033162,9.15321204 26.4349084,9.62687921 25.972,9.99642857 C25.4827713,10.4034192 24.926221,10.7224631 24.32725,10.9392857 C23.8309525,11.1248589 23.3152985,11.2542426 22.79,11.325 C23.0934819,11.3972229 23.3836893,11.5165358 23.65,11.6785714 C23.8349052,11.8295334 23.9883015,12.0151816 24.1015,12.225 C24.2322459,12.4068188 24.3304441,12.6098125 24.39175,12.825 L24.39175,12.825 L24.92925,14.9035714 L20.50025,15 L19.87675,12.6857143 C19.8300518,12.425956 19.710825,12.1845811 19.53275,11.9892857 L19.53275,11.9892857 L20.425,9.84642857 L20.67225,9.84642857 C21.0327651,9.82420226 21.3916942,9.78127386 21.74725,9.71785714 C22.021588,9.67180744 22.282264,9.5656879 22.5105,9.40714286 C22.7245446,9.27443026 22.8932077,9.08017813 22.99425,8.85 C23.1418546,8.6210845 23.1057826,8.31998486 22.90825,8.13214286 C22.4906415,7.9197562 22.0197137,7.83407878 21.55375,7.88571429 L21.55375,7.88571429 L19.823,7.88571429 L16.77,15.0535714 L12.78175,15.1607143 Z M113.07925,6.28928571 C113.453693,6.43278332 113.763117,6.70691341 113.95,7.06071429 C114.152489,7.54827207 114.132881,8.09939068 113.89625,8.57142857 C113.660089,9.11482668 113.290379,9.59016884 112.82125,9.95357143 C112.333435,10.3625794 111.77651,10.6818384 111.1765,10.8964286 C110.680202,11.0820017 110.164549,11.2113854 109.63925,11.2821429 C109.946679,11.3525919 110.240702,11.471981 110.51,11.6357143 C110.672119,11.7808987 110.810012,11.9508836 110.9185,12.1392857 C111.049815,12.3222959 111.151393,12.5247764 111.2195,12.7392857 L111.2195,12.7392857 L111.8,15 L107.328,14.9892857 L106.67225,12.6857143 C106.618269,12.4262505 106.495807,12.1858398 106.3175,11.9892857 L106.3175,11.9892857 L107.2205,9.84642857 L107.48925,9.84642857 C107.849867,9.82532621 108.208862,9.78238985 108.56425,9.71785714 C108.843814,9.67874985 109.109536,9.57207845 109.33825,9.40714286 C109.546754,9.26807347 109.71385,9.07562565 109.822,8.85 C109.959572,8.62255071 109.92411,8.33096098 109.736,8.14285714 C109.318385,7.91894789 108.841547,7.8291363 108.37075,7.88571429 L108.37075,7.88571429 L106.597,7.98214286 L103.673,14.85 L99.77075,14.775 L103.286,6.525 Z M33.325,6.65357143 L38.36675,6.79285714 L38.92575,14.6785714 L34.8945,14.6785714 L34.8945,13.9821429 L35.03425,8.44285714 L29.80975,14.7642857 L25.8,14.8392857 L33.325,6.65357143 Z M97.5025,6.63214286 L98.07225,14.7 L94.041,14.6357143 L94.041,13.9392857 L94.1915,8.4 L89.08525,14.5607143 L85.2045,14.5607143 L92.45,6.70714286 L97.5025,6.63214286 Z M48.375,6.84642857 L50.525,11.2714286 L52.374,6.86785714 L56.029,7.03928571 L52.804,14.6464286 L52.804,14.6464286 L48.12775,14.6464286 L46.1175,10.3607143 L44.30075,14.6464286 L40.592,14.6464286 L43.91375,6.84642857 L48.375,6.84642857 Z M67.67125,7.425 C67.9740071,7.56635827 68.2071314,7.82296588 68.3182978,8.13722684 C68.4294643,8.4514878 68.4093609,8.79707778 68.2625,9.09642857 L64.5,9.24642857 C64.6054337,8.98646763 64.516159,8.68839075 64.285,8.52857143 C63.9214655,8.33917764 63.5111569,8.25738856 63.1025,8.29285714 C62.718811,8.27925595 62.3359603,8.33740128 61.97375,8.46428571 C61.7435212,8.5327315 61.5429328,8.67607182 61.404,8.87142857 C61.32875,8.98928571 61.404,9.09642857 61.5115,9.19285714 C61.8812066,9.35629373 62.2790347,9.44723557 62.68325,9.46071429 C63.8079339,9.58442739 64.9194863,9.80671635 66.005,10.125 C66.4850385,10.2385488 66.9038734,10.5296102 67.17675,10.9392857 C67.3176687,11.2913862 67.2817326,11.6893499 67.08,12.0107143 C66.7340425,12.5649803 66.2485324,13.0193265 65.67175,13.3285714 C64.9277809,13.7602771 64.1180259,14.0679027 63.2745,14.2392857 C62.2146168,14.4632258 61.1327958,14.5674544 60.0495,14.55 C57.8995,14.55 56.5235,14.3035714 55.9645,13.8214286 C55.4011078,13.3963818 55.2166943,12.6342809 55.52375,12 L59.34,11.8607143 C59.2042973,12.1114979 59.2042973,12.4135021 59.34,12.6642857 C59.7451789,13.0306048 60.2923104,13.199299 60.83425,13.125 C61.3523109,13.1366258 61.8675292,13.0455785 62.35,12.8571429 C62.6549432,12.7696421 62.9205527,12.5805514 63.1025,12.3214286 C63.21,12.1285714 63.15625,11.9678571 62.952,11.8071429 C62.3903457,11.5622969 61.7900498,11.4172541 61.17825,11.3785714 C60.0521633,11.3052911 58.9537835,10.9987665 57.95325,10.4785714 C57.7093041,10.3422012 57.5355927,10.1082802 57.4760061,9.83591155 C57.4164195,9.56354294 57.4766574,9.27877988 57.6415,9.05357143 C57.9332286,8.6058814 58.3322371,8.23765647 58.8025,7.98214286 C59.4743329,7.6099681 60.1994115,7.34258031 60.9525,7.18928571 C62.0350903,6.9723927 63.1378935,6.87181785 64.242,6.88928571 C65.4109066,6.80976301 66.5828123,6.99283703 67.67125,7.425 Z M121.475,7.89642857 L120.4,7.97142857 L119.4755,10.05 L120.43225,10.05 C121.021186,10.0846173 121.610109,9.98189813 122.15225,9.75 C122.500442,9.59982665 122.782803,9.32981216 122.94775,8.98928571 C123.070023,8.73386968 123.027733,8.43039443 122.84025,8.21785714 C122.66825,8.00357143 122.206,7.89642857 121.475,7.89642857 L121.475,7.89642857 Z" id="形状结合"></path>
                <path d="M62.522,22.5857143 C63.3000134,22.5820456 64.0485687,22.8820112 64.6075,23.4214286 L63.8335,24.375 C63.4624208,24.0731732 63.0008463,23.9034859 62.522,23.8928571 C62.049,23.8928571 61.75875,24.0857143 61.75875,24.4178571 C61.75875,24.75 62.1565,24.9107143 62.72625,25.1357143 L63.5325,25.4464286 C64.3011843,25.6826627 64.8162713,26.4022663 64.79025,27.2035714 C64.79025,28.275 63.898,29.1964286 62.35,29.1964286 C61.4523639,29.2067203 60.5841912,28.8774512 59.9205,28.275 L60.7805,27.2035714 C61.2158563,27.5898474 61.7683259,27.8199068 62.35,27.8571429 C62.91975,27.8571429 63.1885,27.6428571 63.1885,27.3 C63.1885,26.9571429 62.83375,26.8071429 62.2855,26.5821429 L61.4685,26.2392857 C60.7238868,25.9872177 60.2169752,25.2978819 60.2,24.5142857 C60.3135244,23.3461483 61.3487108,22.4863589 62.522,22.5857143 Z M82.93625,22.7035714 L82.93625,26.2392857 C82.93625,27.45 83.30175,27.8785714 84.01125,27.8785714 C84.72075,27.8785714 85.08625,27.45 85.08625,26.2392857 L85.08625,22.7035714 L86.56975,22.7035714 L86.56975,26.0785714 C86.56975,28.2214286 85.70975,29.1964286 84.0005,29.1964286 C82.29125,29.1964286 81.40975,28.2214286 81.40975,26.0785714 L81.40975,22.7035714 L82.93625,22.7035714 Z M115.40125,22.5857143 C117.14275,22.5857143 118.336,23.775 118.336,25.8535714 C118.336,27.9321429 117.1535,29.1964286 115.40125,29.1964286 C113.649,29.1964286 112.47725,27.9428571 112.47725,25.8535714 C112.47725,23.7642857 113.65975,22.5857143 115.40125,22.5857143 Z M12.50225,22.7035714 C14.45875,22.7035714 15.72725,23.6357143 15.72725,25.8535714 C15.8328832,26.722571 15.5365445,27.5923232 14.9218169,28.2175122 C14.3070894,28.8427013 13.4406021,29.1555642 12.56675,29.0678571 L10.664,29.0678571 L10.664,22.7035714 L12.50225,22.7035714 Z M95.0085,22.7035714 C96.95425,22.7035714 98.2335,23.6357143 98.2335,25.8535714 C98.3385542,26.7205262 98.0435678,27.5882023 97.4313812,28.2129321 C96.8191945,28.8376619 95.9558321,29.1520683 95.08375,29.0678571 L93.17025,29.0678571 L93.17025,22.7035714 L95.0085,22.7035714 Z M25.0045,22.7035714 L26.99325,29.0785714 L25.38075,29.0785714 L25.0045,27.6107143 L23.1125,27.6107143 L22.747,29.0785714 L21.18825,29.0785714 L23.16625,22.7035714 L25.0045,22.7035714 Z M36.60375,22.7035714 L36.60375,23.9678571 L34.86225,23.9678571 L34.86225,29.0785714 L33.325,29.0785714 L33.325,23.9678571 L31.59425,23.9678571 L31.59425,22.7035714 L36.60375,22.7035714 Z M45.37575,22.7035714 L47.35375,29.0785714 L45.74125,29.0785714 L45.37575,27.6107143 L43.48375,27.6107143 L43.11825,29.0785714 L41.54875,29.0785714 L43.5375,22.7035714 L45.37575,22.7035714 Z M75.25,22.7035714 L75.25,23.9678571 L73.5515,23.9678571 L73.5515,29.0785714 L72.025,29.0785714 L72.025,23.9678571 L70.305,23.9678571 L70.305,22.7035714 L75.25,22.7035714 Z M106.13475,22.7035714 L106.13475,29.0785714 L104.5975,29.0785714 L104.5975,22.7035714 L106.13475,22.7035714 Z M115.412,23.8928571 C114.56275,23.8928571 114.0575,24.6214286 114.0575,25.8535714 C114.0575,27.0857143 114.5735,27.8785714 115.412,27.8785714 C116.2505,27.8785714 116.7665,27.0964286 116.7665,25.8535714 L116.77725,25.8535714 C116.77725,24.6214286 116.26125,23.8928571 115.412,23.8928571 Z M12.4055,23.925 L12.20125,23.925 L12.20125,27.8571429 L12.4055,27.8571429 C13.4805,27.8571429 14.1685,27.3857143 14.1685,25.8642857 C14.1685,24.3428571 13.4375,23.925 12.4055,23.925 Z M94.91175,23.925 L94.7075,23.925 L94.7075,27.8571429 L94.91175,27.8571429 C95.98675,27.8571429 96.67475,27.3857143 96.67475,25.8642857 C96.67475,24.3428571 95.94375,23.925 94.91175,23.925 Z M24.08,23.8392857 C23.9295,24.5142857 23.7575,25.2535714 23.5855,25.8857143 L23.4565,26.4321429 L24.725,26.4321429 L24.58525,25.8857143 C24.45625,25.4116071 24.3332969,24.8651786 24.2073203,24.3458705 L24.08,23.8392857 Z M44.4405,23.8392857 C44.29,24.5142857 44.118,25.2535714 43.95675,25.8857143 L43.817,26.4321429 L45.0855,26.4321429 L44.94575,25.8857143 C44.81675,25.4116071 44.6937969,24.8651786 44.5678203,24.3458705 L44.4405,23.8392857 Z" id="形状结合"></path>
            </g>
        </g>
    </g>
</svg>